<svg width="44" height="45" viewBox="0 0 44 45" fill="none" xmlns="http://www.w3.org/2000/svg">
<path d="M44 22.0166C44 9.86508 34.1515 0.0166016 22 0.0166016C9.84848 0.0166016 0 9.86508 0 22.0166C0 32.9995 8.04375 42.1002 18.5625 43.7502V28.376H12.9765V22.0166H18.5625V17.1697C18.5625 11.6568 21.8454 8.61035 26.8726 8.61035C29.2789 8.61035 31.7969 9.04004 31.7969 9.04004V14.4541H29.0211C26.2883 14.4541 25.4375 16.1514 25.4375 17.8916V22.0166H31.539L30.5637 28.376H25.4375V43.7502C35.9562 42.1002 44 32.9995 44 22.0166Z" fill="#1877F2"/>
<path d="M30.5637 28.376L31.5391 22.0166H25.4375V17.8916C25.4375 16.1514 26.2883 14.4541 29.0212 14.4541H31.7969V9.04004C31.7969 9.04004 29.2789 8.61035 26.8727 8.61035C21.8454 8.61035 18.5625 11.6568 18.5625 17.1697V22.0166H12.9766V28.376H18.5625V43.7502C19.684 43.9264 20.8313 44.0166 22 44.0166C23.1688 44.0166 24.3161 43.9264 25.4375 43.7502V28.376H30.5637Z" fill="white"/>
</svg>
