<svg width="48" height="49" viewBox="0 0 48 49" fill="none" xmlns="http://www.w3.org/2000/svg">
<path d="M0 24.0166C0 10.7618 10.7452 0.0166016 24 0.0166016C37.2548 0.0166016 48 10.7618 48 24.0166C48 37.2714 37.2548 48.0166 24 48.0166C10.7452 48.0166 0 37.2714 0 24.0166Z" fill="#333333"/>
<path d="M19.2 38.4167C21.851 38.4167 24 36.2676 24 33.6167V28.8167H19.2C16.5491 28.8167 14.4 30.9657 14.4 33.6167C14.4 36.2676 16.5491 38.4167 19.2 38.4167Z" fill="#0ACF83"/>
<path d="M14.4 24.0168C14.4 21.3658 16.5491 19.2168 19.2 19.2168H24V28.8168H19.2C16.5491 28.8168 14.4 26.6678 14.4 24.0168Z" fill="#A259FF"/>
<path d="M14.4 14.4167C14.4 11.7657 16.5491 9.6167 19.2 9.6167H24V19.2167H19.2C16.5491 19.2167 14.4 17.0677 14.4 14.4167Z" fill="#F24E1E"/>
<path d="M24 9.6167H28.8C31.451 9.6167 33.6 11.7657 33.6 14.4167C33.6 17.0677 31.451 19.2167 28.8 19.2167H24V9.6167Z" fill="#FF7262"/>
<path d="M33.6 24.0168C33.6 26.6678 31.451 28.8168 28.8 28.8168C26.149 28.8168 24 26.6678 24 24.0168C24 21.3658 26.149 19.2168 28.8 19.2168C31.451 19.2168 33.6 21.3658 33.6 24.0168Z" fill="#1ABCFE"/>
</svg>
