<svg width="48" height="49" viewBox="0 0 48 49" fill="none" xmlns="http://www.w3.org/2000/svg">
<path d="M24.0002 0.0166016C10.747 0.0166016 0 11.0335 0 24.6242C0 35.4965 6.87679 44.7205 16.4128 47.9743C17.6123 48.2021 18.0526 47.4405 18.0526 46.7905C18.0526 46.2038 18.0304 44.2653 18.02 42.2091C11.3431 43.6977 9.93424 39.3057 9.93424 39.3057C8.84249 36.4614 7.26945 35.7051 7.26945 35.7051C5.09191 34.1779 7.43359 34.2092 7.43359 34.2092C9.84363 34.3828 11.1126 36.7451 11.1126 36.7451C13.2532 40.507 16.7272 39.4194 18.0967 38.7907C18.3121 37.2002 18.9341 36.1147 19.6205 35.5002C14.2897 34.8779 8.6859 32.7679 8.6859 23.339C8.6859 20.6524 9.62345 18.4572 11.1587 16.734C10.9095 16.1142 10.088 13.6113 11.3912 10.2218C11.3912 10.2218 13.4066 9.56047 17.993 12.7442C19.9074 12.199 21.9606 11.9255 24.0002 11.9162C26.0398 11.9255 28.0946 12.199 30.0126 12.7442C34.5934 9.56047 36.606 10.2218 36.606 10.2218C37.9124 13.6113 37.0905 16.1142 36.8413 16.734C38.3801 18.4572 39.3113 20.6524 39.3113 23.339C39.3113 32.7903 33.6968 34.8714 28.3525 35.4806C29.2133 36.2442 29.9804 37.7418 29.9804 40.0376C29.9804 43.3301 29.9526 45.98 29.9526 46.7905C29.9526 47.4454 30.3846 48.2127 31.6011 47.971C41.132 44.7136 48 35.4928 48 24.6242C48 11.0335 37.2546 0.0166016 24.0002 0.0166016" fill="white"/>
<path d="M9.16085 35.179C9.10809 35.3001 8.92085 35.3364 8.75027 35.2533C8.57652 35.1738 8.47893 35.0088 8.53526 34.8873C8.58683 34.7626 8.77447 34.7279 8.94782 34.8115C9.12197 34.8909 9.22115 35.0576 9.16085 35.179" fill="#161514"/>
<path d="M10.1312 36.2796C10.0169 36.3873 9.79358 36.3373 9.64205 36.167C9.48535 35.9972 9.456 35.77 9.57183 35.6607C9.68965 35.5529 9.90624 35.6034 10.0633 35.7732C10.22 35.9451 10.2506 36.1707 10.1312 36.2796" fill="#161514"/>
<path d="M11.0757 37.6828C10.929 37.7865 10.689 37.6892 10.5406 37.4726C10.3938 37.2559 10.3938 36.9961 10.5438 36.892C10.6925 36.7879 10.929 36.8815 11.0793 37.0965C11.2257 37.3168 11.2257 37.5767 11.0757 37.6828" fill="#161514"/>
<path d="M12.3698 39.0385C12.2385 39.1858 11.9588 39.1463 11.7541 38.9453C11.5446 38.7488 11.4863 38.47 11.618 38.3228C11.7509 38.1751 12.0322 38.2167 12.2385 38.416C12.4463 38.6121 12.5098 38.8929 12.3698 39.0385" fill="#161514"/>
<path d="M14.1549 39.8256C14.097 40.0165 13.8276 40.1032 13.5563 40.0221C13.2853 39.9386 13.108 39.7151 13.1628 39.5222C13.2191 39.3302 13.4896 39.2398 13.763 39.3265C14.0335 39.4096 14.2112 39.6316 14.1549 39.8256" fill="#161514"/>
<path d="M16.1154 39.9718C16.1221 40.1727 15.892 40.3394 15.6072 40.343C15.3208 40.3495 15.0891 40.1869 15.0859 39.9892C15.0859 39.7862 15.3109 39.6212 15.5973 39.6164C15.8821 39.6107 16.1154 39.7721 16.1154 39.9718" fill="#161514"/>
<path d="M17.9397 39.6558C17.9738 39.8519 17.7759 40.0532 17.493 40.1069C17.2149 40.1585 16.9575 40.0375 16.9222 39.843C16.8877 39.6421 17.0892 39.4407 17.3669 39.3887C17.6501 39.3387 17.9036 39.4565 17.9397 39.6558" fill="#161514"/>
</svg>
