<svg width="44" height="45" viewBox="0 0 44 45" fill="none" xmlns="http://www.w3.org/2000/svg">
<path d="M22.0016 0.0166016C16.0267 0.0166016 15.2769 0.042727 12.9302 0.149519C10.5881 0.256769 8.98939 0.62756 7.59054 1.1716C6.14356 1.73352 4.91613 2.48519 3.69329 3.70848C2.46953 4.93131 1.71785 6.15873 1.1541 7.60523C0.608673 9.00452 0.237419 10.6036 0.132001 12.9448C0.0275003 15.2915 0 16.0418 0 22.0166C0 27.9914 0.026584 28.739 0.132918 31.0856C0.240628 33.4277 0.611423 35.0264 1.15501 36.4252C1.71739 37.8722 2.46907 39.0996 3.69237 40.3224C4.91476 41.5462 6.14219 42.2997 7.58825 42.8616C8.98801 43.4056 10.5872 43.7764 12.9288 43.8837C15.2755 43.9905 16.0249 44.0166 21.9993 44.0166C27.9747 44.0166 28.7222 43.9905 31.0689 43.8837C33.411 43.7764 35.0115 43.4056 36.4113 42.8616C37.8578 42.2997 39.0834 41.5462 40.3058 40.3224C41.5296 39.0996 42.2812 37.8722 42.845 36.4257C43.3858 35.0264 43.7571 33.4273 43.8671 31.0861C43.9725 28.7394 44 27.9914 44 22.0166C44 16.0418 43.9725 15.2919 43.8671 12.9453C43.7571 10.6032 43.3858 9.00452 42.845 7.60568C42.2812 6.15873 41.5296 4.93131 40.3058 3.70848C39.082 2.48473 37.8583 1.73306 36.4099 1.1716C35.0074 0.62756 33.4078 0.256769 31.0657 0.149519C28.719 0.042727 27.9719 0.0166016 21.9952 0.0166016H22.0016ZM20.028 3.98118C20.6138 3.98027 21.2673 3.98118 22.0016 3.98118C27.8757 3.98118 28.5719 4.00227 30.8915 4.10769C33.0366 4.20577 34.2007 4.56419 34.9762 4.86531C36.0029 5.26406 36.7349 5.74073 37.5044 6.51073C38.2744 7.28073 38.7511 8.01406 39.1508 9.04073C39.4519 9.81531 39.8108 10.9795 39.9084 13.1245C40.0138 15.4436 40.0368 16.1403 40.0368 22.0116C40.0368 27.8828 40.0138 28.5795 39.9084 30.8986C39.8103 33.0436 39.4519 34.2078 39.1508 34.9824C38.752 36.0091 38.2744 36.7401 37.5044 37.5096C36.7344 38.2796 36.0034 38.7563 34.9762 39.1551C34.2017 39.4576 33.0366 39.8151 30.8915 39.9131C28.5723 40.0186 27.8757 40.0415 22.0016 40.0415C16.1271 40.0415 15.4309 40.0186 13.1117 39.9131C10.9667 39.8141 9.80248 39.4557 9.02651 39.1546C7.99983 38.7559 7.26649 38.2792 6.49648 37.5092C5.72648 36.7392 5.24981 36.0077 4.85013 34.9806C4.54901 34.206 4.19013 33.0418 4.0925 30.8968C3.98708 28.5776 3.966 27.881 3.966 22.0061C3.966 16.1311 3.98708 15.4381 4.0925 13.119C4.19059 10.974 4.54901 9.80981 4.85013 9.03431C5.24889 8.00764 5.72648 7.27431 6.49648 6.50431C7.26649 5.73431 7.99983 5.25764 9.02651 4.85798C9.80202 4.55548 10.9667 4.19798 13.1117 4.09944C15.1412 4.00777 15.9277 3.98027 20.028 3.97569V3.98118Z" fill="url(#paint0_radial_9_138)"/>
<path d="M33.6978 7.58006C33.1756 7.58006 32.6652 7.73492 32.231 8.02504C31.7969 8.31517 31.4585 8.72754 31.2587 9.20999C31.0589 9.69244 31.0067 10.2233 31.1086 10.7354C31.2105 11.2476 31.4621 11.718 31.8314 12.0871C32.2007 12.4563 32.6712 12.7077 33.1833 12.8094C33.6955 12.9112 34.2264 12.8588 34.7088 12.6588C35.1912 12.4589 35.6034 12.1204 35.8934 11.6861C36.1834 11.2518 36.338 10.7413 36.3379 10.2191C36.3379 8.76164 35.1553 7.57914 33.6978 7.57914V7.58006Z" fill="url(#paint1_radial_9_138)"/>
<path fill-rule="evenodd" clip-rule="evenodd" d="M21.9543 10.6646C15.7149 10.6646 10.6563 15.7233 10.6563 21.9626C10.6563 28.2019 15.7149 33.2582 21.9543 33.2582C28.1937 33.2582 33.251 28.2019 33.251 21.9626C33.251 15.7233 28.1937 10.6646 21.9543 10.6646ZM22 29.2354C25.9868 29.2354 29.2188 26.0035 29.2188 22.0166C29.2188 18.0298 25.9868 14.7979 22 14.7979C18.0132 14.7979 14.7813 18.0298 14.7813 22.0166C14.7813 26.0035 18.0132 29.2354 22 29.2354Z" fill="url(#paint2_radial_9_138)"/>
<path d="M22.0016 0.0166016C16.0267 0.0166016 15.2769 0.042727 12.9302 0.149519C10.5881 0.256769 8.98939 0.62756 7.59054 1.1716C6.14356 1.73352 4.91613 2.48519 3.69329 3.70848C2.46953 4.93131 1.71785 6.15873 1.1541 7.60523C0.608673 9.00452 0.237419 10.6036 0.132001 12.9448C0.0275003 15.2915 0 16.0418 0 22.0166C0 27.9914 0.026584 28.739 0.132918 31.0856C0.240628 33.4277 0.611423 35.0264 1.15501 36.4252C1.71739 37.8722 2.46907 39.0996 3.69237 40.3224C4.91476 41.5462 6.14219 42.2997 7.58825 42.8616C8.98801 43.4056 10.5872 43.7764 12.9288 43.8837C15.2755 43.9905 16.0249 44.0166 21.9993 44.0166C27.9747 44.0166 28.7222 43.9905 31.0689 43.8837C33.411 43.7764 35.0115 43.4056 36.4113 42.8616C37.8578 42.2997 39.0834 41.5462 40.3058 40.3224C41.5296 39.0996 42.2812 37.8722 42.845 36.4257C43.3858 35.0264 43.7571 33.4273 43.8671 31.0861C43.9725 28.7394 44 27.9914 44 22.0166C44 16.0418 43.9725 15.2919 43.8671 12.9453C43.7571 10.6032 43.3858 9.00452 42.845 7.60568C42.2812 6.15873 41.5296 4.93131 40.3058 3.70848C39.082 2.48473 37.8583 1.73306 36.4099 1.1716C35.0074 0.62756 33.4078 0.256769 31.0657 0.149519C28.719 0.042727 27.9719 0.0166016 21.9952 0.0166016H22.0016ZM20.028 3.98118C20.6138 3.98027 21.2673 3.98118 22.0016 3.98118C27.8757 3.98118 28.5719 4.00227 30.8915 4.10769C33.0366 4.20577 34.2007 4.56419 34.9762 4.86531C36.0029 5.26406 36.7349 5.74073 37.5044 6.51073C38.2744 7.28073 38.7511 8.01406 39.1508 9.04073C39.4519 9.81531 39.8108 10.9795 39.9084 13.1245C40.0138 15.4436 40.0368 16.1403 40.0368 22.0116C40.0368 27.8828 40.0138 28.5795 39.9084 30.8986C39.8103 33.0436 39.4519 34.2078 39.1508 34.9824C38.752 36.0091 38.2744 36.7401 37.5044 37.5096C36.7344 38.2796 36.0034 38.7563 34.9762 39.1551C34.2017 39.4576 33.0366 39.8151 30.8915 39.9131C28.5723 40.0186 27.8757 40.0415 22.0016 40.0415C16.1271 40.0415 15.4309 40.0186 13.1117 39.9131C10.9667 39.8141 9.80248 39.4557 9.02651 39.1546C7.99983 38.7559 7.26649 38.2792 6.49648 37.5092C5.72648 36.7392 5.24981 36.0077 4.85013 34.9806C4.54901 34.206 4.19013 33.0418 4.0925 30.8968C3.98708 28.5776 3.966 27.881 3.966 22.0061C3.966 16.1311 3.98708 15.4381 4.0925 13.119C4.19059 10.974 4.54901 9.80981 4.85013 9.03431C5.24889 8.00764 5.72648 7.27431 6.49648 6.50431C7.26649 5.73431 7.99983 5.25764 9.02651 4.85798C9.80202 4.55548 10.9667 4.19798 13.1117 4.09944C15.1412 4.00777 15.9277 3.98027 20.028 3.97569V3.98118Z" fill="url(#paint3_radial_9_138)"/>
<path d="M33.6978 7.58006C33.1756 7.58006 32.6652 7.73492 32.231 8.02504C31.7969 8.31517 31.4585 8.72754 31.2587 9.20999C31.0589 9.69244 31.0067 10.2233 31.1086 10.7354C31.2105 11.2476 31.4621 11.718 31.8314 12.0871C32.2007 12.4563 32.6712 12.7077 33.1833 12.8094C33.6955 12.9112 34.2264 12.8588 34.7088 12.6588C35.1912 12.4589 35.6034 12.1204 35.8934 11.6861C36.1834 11.2518 36.338 10.7413 36.3379 10.2191C36.3379 8.76164 35.1553 7.57914 33.6978 7.57914V7.58006Z" fill="url(#paint4_radial_9_138)"/>
<path fill-rule="evenodd" clip-rule="evenodd" d="M21.9543 10.6646C15.7149 10.6646 10.6563 15.7233 10.6563 21.9626C10.6563 28.2019 15.7149 33.2582 21.9543 33.2582C28.1937 33.2582 33.251 28.2019 33.251 21.9626C33.251 15.7233 28.1937 10.6646 21.9543 10.6646ZM22 29.2354C25.9868 29.2354 29.2188 26.0035 29.2188 22.0166C29.2188 18.0298 25.9868 14.7979 22 14.7979C18.0132 14.7979 14.7813 18.0298 14.7813 22.0166C14.7813 26.0035 18.0132 29.2354 22 29.2354Z" fill="url(#paint5_radial_9_138)"/>
<defs>
<radialGradient id="paint0_radial_9_138" cx="0" cy="0" r="1" gradientUnits="userSpaceOnUse" gradientTransform="translate(11.6876 47.4055) rotate(-90) scale(43.6073 40.5582)">
<stop stop-color="#FFDD55"/>
<stop offset="0.1" stop-color="#FFDD55"/>
<stop offset="0.5" stop-color="#FF543E"/>
<stop offset="1" stop-color="#C837AB"/>
</radialGradient>
<radialGradient id="paint1_radial_9_138" cx="0" cy="0" r="1" gradientUnits="userSpaceOnUse" gradientTransform="translate(11.6876 47.4055) rotate(-90) scale(43.6073 40.5582)">
<stop stop-color="#FFDD55"/>
<stop offset="0.1" stop-color="#FFDD55"/>
<stop offset="0.5" stop-color="#FF543E"/>
<stop offset="1" stop-color="#C837AB"/>
</radialGradient>
<radialGradient id="paint2_radial_9_138" cx="0" cy="0" r="1" gradientUnits="userSpaceOnUse" gradientTransform="translate(11.6876 47.4055) rotate(-90) scale(43.6073 40.5582)">
<stop stop-color="#FFDD55"/>
<stop offset="0.1" stop-color="#FFDD55"/>
<stop offset="0.5" stop-color="#FF543E"/>
<stop offset="1" stop-color="#C837AB"/>
</radialGradient>
<radialGradient id="paint3_radial_9_138" cx="0" cy="0" r="1" gradientUnits="userSpaceOnUse" gradientTransform="translate(-7.37023 3.18629) rotate(78.6806) scale(19.4926 80.3494)">
<stop stop-color="#3771C8"/>
<stop offset="0.128" stop-color="#3771C8"/>
<stop offset="1" stop-color="#6600FF" stop-opacity="0"/>
</radialGradient>
<radialGradient id="paint4_radial_9_138" cx="0" cy="0" r="1" gradientUnits="userSpaceOnUse" gradientTransform="translate(-7.37023 3.18629) rotate(78.6806) scale(19.4926 80.3494)">
<stop stop-color="#3771C8"/>
<stop offset="0.128" stop-color="#3771C8"/>
<stop offset="1" stop-color="#6600FF" stop-opacity="0"/>
</radialGradient>
<radialGradient id="paint5_radial_9_138" cx="0" cy="0" r="1" gradientUnits="userSpaceOnUse" gradientTransform="translate(-7.37023 3.18629) rotate(78.6806) scale(19.4926 80.3494)">
<stop stop-color="#3771C8"/>
<stop offset="0.128" stop-color="#3771C8"/>
<stop offset="1" stop-color="#6600FF" stop-opacity="0"/>
</radialGradient>
</defs>
</svg>
