<svg width="44" height="45" viewBox="0 0 44 45" fill="none" xmlns="http://www.w3.org/2000/svg">
<path d="M22 44.0166C34.1502 44.0166 44 34.1668 44 22.0166C44 9.86637 34.1502 0.0166016 22 0.0166016C9.84977 0.0166016 0 9.86637 0 22.0166C0 34.1668 9.84977 44.0166 22 44.0166Z" fill="url(#paint0_linear_9_140)"/>
<path d="M8.19341 23.0928C10.7652 21.6762 13.636 20.4938 16.3184 19.3055C20.933 17.359 25.5661 15.4463 30.2458 13.6656C31.1563 13.3622 32.7923 13.0654 32.9527 14.4148C32.8649 16.3247 32.5036 18.2235 32.2557 20.1223C31.6266 24.2979 30.8995 28.4592 30.1905 32.6211C29.9462 34.0073 28.2095 34.725 27.0984 33.8378C24.4279 32.034 21.737 30.2478 19.1006 28.4022C18.237 27.5247 19.0378 26.2645 19.8091 25.6379C22.0086 23.4703 24.3411 21.6288 26.4256 19.3492C26.9879 17.9913 25.3265 19.1357 24.7785 19.4863C21.7675 21.5613 18.8301 23.7629 15.6555 25.5866C14.0339 26.4792 12.1439 25.7164 10.5231 25.2182C9.0698 24.6165 6.94018 24.0104 8.19326 23.0929L8.19341 23.0928Z" fill="white"/>
<defs>
<linearGradient id="paint0_linear_9_140" x1="16.5026" y1="1.8514" x2="5.50257" y2="27.5166" gradientUnits="userSpaceOnUse">
<stop stop-color="#37AEE2"/>
<stop offset="1" stop-color="#1E96C8"/>
</linearGradient>
</defs>
</svg>
