<svg width="44" height="45" viewBox="0 0 44 45" fill="none" xmlns="http://www.w3.org/2000/svg">
<path d="M44 22.0166C44 9.86634 34.1503 0.0166016 22 0.0166016C9.84974 0.0166016 0 9.86634 0 22.0166C0 34.1669 9.84974 44.0166 22 44.0166C34.1503 44.0166 44 34.1669 44 22.0166Z" fill="#FF0000"/>
<path d="M21.9908 11.636C21.9908 11.636 12.7187 11.636 10.3916 12.2407C9.14553 12.5889 8.1195 13.6149 7.77134 14.8793C7.16664 17.2064 7.16663 22.0258 7.16663 22.0258C7.16663 22.0258 7.16664 26.8635 7.77134 29.1541C8.1195 30.4184 9.1272 31.4261 10.3916 31.7743C12.7371 32.3973 21.9908 32.3973 21.9908 32.3973C21.9908 32.3973 31.2813 32.3973 33.6084 31.7926C34.8728 31.4445 35.8805 30.4551 36.2103 29.1724C36.8334 26.8635 36.8334 22.0442 36.8334 22.0442C36.8334 22.0442 36.8517 17.2064 36.2103 14.8793C35.8805 13.6149 34.8728 12.6072 33.6084 12.2774C31.2813 11.636 21.9908 11.636 21.9908 11.636ZM19.0406 17.5731L26.7552 22.0258L19.0406 26.4602V17.5731Z" fill="white"/>
</svg>
